<?xml version="1.0" encoding="UTF-8" standalone="no"?><!DOCTYPE svg PUBLIC "-//W3C//DTD SVG 1.1//EN" "http://www.w3.org/Graphics/SVG/1.1/DTD/svg11.dtd"><svg width="100%" height="100%" viewBox="0 0 1955 416" version="1.1" xmlns="http://www.w3.org/2000/svg" xmlns:xlink="http://www.w3.org/1999/xlink" xml:space="preserve" xmlns:serif="http://www.serif.com/" style="fill-rule:evenodd;clip-rule:evenodd;stroke-linejoin:round;stroke-miterlimit:2;"><rect id="logo_ssw_primary_dark" x="0.113" y="0.5" width="1954.33" height="415" style="fill:none;"/><g><path d="M211.978,278.084c4.82,4.651 10.423,8.019 16.36,10.126c9.77,3.438 20.479,3.438 30.259,-0.012l0.011,-0.012c1.512,-0.512 2.976,-1.119 4.439,-1.821l0.012,-0.011c4.284,-2.048 8.317,-4.796 11.911,-8.27c0.214,-0.19 0.428,-0.406 0.631,-0.607c0.201,-0.203 0.416,-0.417 0.607,-0.631c3.475,-3.594 6.222,-7.627 8.27,-11.909c0.702,-1.466 1.32,-2.939 1.831,-4.451l0.011,-0.011c3.452,-9.782 3.452,-20.491 0.014,-30.259c-2.107,-5.938 -5.475,-11.542 -10.126,-16.362c-0.191,-0.214 -0.406,-0.428 -0.607,-0.629l-42.835,-42.836c-5.915,-5.914 -15.505,-5.914 -21.419,0c-5.698,5.7 -5.901,14.825 -0.607,20.787c0.192,0.215 0.406,0.429 0.607,0.63l42.836,42.836c0.202,0.202 0.417,0.417 0.606,0.631c5.296,5.96 5.094,15.087 -0.606,20.786c-5.913,5.914 -15.505,5.914 -21.417,-0l-26.474,-26.474l-21.419,21.418l26.474,26.474c0.203,0.201 0.417,0.417 0.631,0.607" style="fill:#fff;fill-rule:nonzero;"/><path d="M206.933,138.251c9.782,-3.45 20.489,-3.45 30.259,-0.012c5.937,2.105 11.542,5.473 16.36,10.126c0.214,0.189 0.428,0.404 0.631,0.607l16.36,16.361l21.419,-21.419l-16.362,-16.359c-0.203,-0.203 -0.415,-0.417 -0.63,-0.609c-4.819,-4.651 -10.424,-8.019 -16.361,-10.125c-9.768,-3.439 -20.477,-3.439 -30.257,0.013l-0.013,0.011c-1.512,0.511 -2.987,1.131 -4.451,1.832c-4.282,2.047 -8.316,4.796 -11.909,8.269c-0.214,0.192 -0.429,0.406 -0.631,0.609c-0.203,0.201 -0.417,0.415 -0.607,0.629c-3.475,3.594 -6.223,7.627 -8.27,11.911c1.464,-0.702 2.939,-1.32 4.451,-1.833l0.011,-0.011Z" style="fill:#fff;fill-rule:nonzero;"/><path d="M366.848,223.079c-0.01,0.092 -0.02,0.184 -0.03,0.277c-7.645,70.064 -67.01,124.588 -139.108,124.588c-38.644,0 -73.616,-15.677 -98.941,-41.002l-21.446,21.446c30.829,30.899 73.435,50.042 120.448,50.042c93.965,0 170.427,-76.461 170.427,-170.427c-0,-5.192 -0.244,-10.332 -0.696,-15.402l-33.88,-0l0,0.053l-65.767,-0l2.019,2.017c0,0 12.481,11.506 19.625,28.39l47.319,-0l0.03,0.018Z" style="fill:#fff;fill-rule:nonzero;"/><path d="M258.598,288.198c-9.782,3.45 -20.489,3.45 -30.259,0.011c-5.937,-2.107 -11.542,-5.472 -16.36,-10.126c-0.214,-0.189 -0.429,-0.404 -0.631,-0.606l-26.474,-26.474l-21.417,21.417l26.474,26.475c0.201,0.201 0.415,0.416 0.629,0.607c4.82,4.652 10.425,8.019 16.362,10.126c9.768,3.438 20.477,3.438 30.259,-0.014l0.011,-0.011c1.512,-0.511 2.987,-1.129 4.451,-1.833c4.282,-2.046 8.316,-4.793 11.909,-8.268c0.214,-0.191 0.429,-0.406 0.631,-0.607c0.203,-0.202 0.417,-0.417 0.607,-0.631c3.475,-3.593 6.222,-7.627 8.258,-11.899c-1.464,0.702 -2.927,1.308 -4.439,1.821l-0.011,0.012Z" style="fill:#21a1f7;fill-rule:nonzero;"/><path d="M227.71,68.062c38.644,0 73.613,15.678 98.938,41.001l21.485,-21.484c-3.287,-3.29 -5.37,-5.146 -5.37,-5.146l0.019,-0.02c-0.479,-0.44 -0.982,-0.852 -1.465,-1.286c-1.365,-1.223 -2.728,-2.444 -4.131,-3.621c-0.624,-0.528 -1.274,-1.026 -1.907,-1.543c-1.36,-1.11 -2.718,-2.224 -4.112,-3.292c-0.716,-0.547 -1.454,-1.065 -2.178,-1.602c-1.345,-0.999 -2.687,-2.003 -4.061,-2.962c-0.811,-0.566 -1.647,-1.096 -2.47,-1.649c-1.322,-0.888 -2.635,-1.785 -3.984,-2.637c-0.906,-0.574 -1.841,-1.109 -2.761,-1.666c-1.294,-0.785 -2.579,-1.583 -3.896,-2.333c-1.006,-0.573 -2.038,-1.104 -3.055,-1.658c-1.262,-0.686 -2.513,-1.388 -3.794,-2.042c-1.103,-0.564 -2.232,-1.083 -3.35,-1.622c-1.229,-0.595 -2.446,-1.209 -3.69,-1.774c-1.195,-0.542 -2.415,-1.037 -3.622,-1.551c-1.198,-0.511 -2.382,-1.043 -3.593,-1.528c-1.283,-0.511 -2.59,-0.973 -3.887,-1.454c-1.167,-0.433 -2.322,-0.89 -3.499,-1.299c-1.36,-0.471 -2.743,-0.887 -4.12,-1.323c-1.142,-0.363 -2.273,-0.754 -3.425,-1.093c-1.422,-0.419 -2.868,-0.782 -4.307,-1.164c-1.131,-0.302 -2.25,-0.631 -3.391,-0.908c-1.478,-0.361 -2.981,-0.663 -4.475,-0.984c-1.121,-0.241 -2.23,-0.513 -3.358,-0.732c-1.557,-0.303 -3.138,-0.542 -4.709,-0.801c-1.086,-0.18 -2.162,-0.391 -3.255,-0.551c-1.649,-0.239 -3.318,-0.412 -4.983,-0.603c-1.035,-0.119 -2.061,-0.272 -3.102,-0.373c-1.865,-0.179 -3.747,-0.288 -5.63,-0.408c-0.855,-0.055 -1.704,-0.144 -2.564,-0.185c-2.751,-0.132 -5.519,-0.199 -8.303,-0.199c-2.868,-0 -5.72,0.075 -8.553,0.217c-0.895,0.045 -1.781,0.135 -2.672,0.193c-1.926,0.127 -3.853,0.251 -5.761,0.44c-1.115,0.111 -2.214,0.27 -3.322,0.402c-1.665,0.2 -3.333,0.389 -4.984,0.635c-1.212,0.181 -2.41,0.409 -3.613,0.616c-1.524,0.261 -3.047,0.513 -4.555,0.815c-1.266,0.254 -2.517,0.549 -3.773,0.829c-1.422,0.318 -2.847,0.631 -4.254,0.986c-1.294,0.324 -2.573,0.685 -3.854,1.04c-1.345,0.372 -2.69,0.74 -4.02,1.144c-1.308,0.397 -2.602,0.825 -3.895,1.252c-1.28,0.422 -2.555,0.844 -3.82,1.296c-1.31,0.466 -2.607,0.961 -3.903,1.459c-1.22,0.469 -2.438,0.943 -3.644,1.44c-1.304,0.536 -2.593,1.093 -3.879,1.662c-1.172,0.516 -2.337,1.04 -3.495,1.582c-1.287,0.602 -2.563,1.222 -3.832,1.856c-1.126,0.561 -2.243,1.134 -3.354,1.72c-1.265,0.667 -2.521,1.346 -3.767,2.044c-1.086,0.608 -2.162,1.231 -3.234,1.862c-1.233,0.725 -2.458,1.459 -3.669,2.214c-1.055,0.658 -2.097,1.333 -3.135,2.012c-1.192,0.78 -2.38,1.563 -3.552,2.372c-1.026,0.708 -2.034,1.436 -3.043,2.165c-1.147,0.829 -2.293,1.658 -3.417,2.513c-1.006,0.765 -1.99,1.555 -2.977,2.341c-1.088,0.867 -2.178,1.729 -3.242,2.621c-0.998,0.832 -1.969,1.694 -2.946,2.55c-1.015,0.892 -2.041,1.775 -3.036,2.69c-0.187,0.172 -0.384,0.333 -0.569,0.504l0.018,0.02c-33.596,31.151 -54.677,75.623 -54.677,124.943c-0,5.077 0.237,10.098 0.674,15.061l141.822,0l32.993,32.993c5.915,5.915 15.505,5.915 21.417,0c5.7,-5.7 5.903,-14.826 0.607,-20.787c-0.19,-0.214 -0.404,-0.428 -0.607,-0.63l-42.834,-42.835c-0.202,-0.203 -0.417,-0.417 -0.608,-0.631c-5.294,-5.961 -5.092,-15.088 0.608,-20.788c5.915,-5.912 15.503,-5.912 21.417,0l16.362,16.362l21.417,-21.419l-16.362,-16.36c-0.201,-0.202 -0.415,-0.417 -0.629,-0.606c-4.82,-4.654 -10.425,-8.021 -16.362,-10.126c-9.768,-3.438 -20.477,-3.438 -30.257,0.012l-0.013,0.011c-1.51,0.513 -2.987,1.131 -4.449,1.833l-0.013,0.012c-4.271,2.034 -8.305,4.783 -11.898,8.258c-0.214,0.189 -0.428,0.404 -0.631,0.606c-0.201,0.203 -0.416,0.417 -0.607,0.632c-3.475,3.593 -6.222,7.627 -8.27,11.909c-0.702,1.464 -1.32,2.939 -1.831,4.45l-0.013,0.012c-3.035,8.604 -3.394,17.926 -1.098,26.693l-89.502,0l-0.008,-0.014c7.645,-70.067 67.01,-124.591 139.109,-124.591" style="fill:#21a1f7;fill-rule:nonzero;"/><g><path d="M492.343,248.391c2.634,2.909 5.598,5.557 8.89,7.944c3.293,2.387 6.806,4.432 10.538,6.133c3.732,1.701 7.601,3.018 11.607,3.951c4.007,0.933 8.068,1.4 12.184,1.4c5.708,-0 11.209,-0.851 16.506,-2.552c5.296,-1.701 9.974,-4.13 14.035,-7.286c4.062,-3.155 7.3,-6.956 9.715,-11.401c2.414,-4.446 3.622,-9.385 3.622,-14.818c-0,-5.543 -1.043,-10.277 -3.129,-14.201c-2.085,-3.924 -4.911,-7.299 -8.479,-10.126c-3.567,-2.826 -7.711,-5.213 -12.43,-7.162c-4.72,-1.948 -9.742,-3.718 -15.065,-5.309c-3.348,-0.933 -6.435,-1.825 -9.262,-2.676c-2.826,-0.851 -5.268,-1.838 -7.326,-2.963c-2.058,-1.126 -3.65,-2.429 -4.775,-3.911c-1.125,-1.482 -1.688,-3.32 -1.688,-5.515c0,-2.744 0.577,-4.953 1.729,-6.627c1.153,-1.674 2.607,-2.991 4.363,-3.952c1.756,-0.96 3.718,-1.605 5.886,-1.934c2.168,-0.33 4.267,-0.494 6.298,-0.494c2.305,-0 4.541,0.37 6.709,1.111c2.168,0.741 4.212,1.66 6.133,2.758c1.921,1.098 3.705,2.277 5.351,3.54c1.647,1.262 3.101,2.415 4.363,3.457c0.659,0.549 1.304,1.016 1.935,1.4c0.631,0.384 1.276,0.576 1.934,0.576c0.714,0 1.427,-0.329 2.141,-0.988l8.726,-8.891c1.921,-2.085 1.948,-4.116 0.082,-6.092c-2.305,-2.359 -4.871,-4.568 -7.697,-6.626c-2.826,-2.059 -5.804,-3.856 -8.932,-5.393c-3.128,-1.536 -6.38,-2.744 -9.755,-3.622c-3.375,-0.878 -6.792,-1.317 -10.249,-1.317c-6.366,0 -12.17,0.796 -17.411,2.387c-5.242,1.592 -9.742,3.828 -13.501,6.71c-3.76,2.881 -6.668,6.325 -8.726,10.331c-2.058,4.007 -3.087,8.452 -3.087,13.336c-0,4.501 0.85,8.534 2.552,12.102c1.701,3.567 4.198,6.778 7.491,9.631c3.293,2.854 7.381,5.42 12.266,7.698c4.884,2.277 10.537,4.376 16.958,6.297c2.086,0.549 4.418,1.208 6.998,1.976c2.579,0.768 4.994,1.742 7.244,2.922c2.25,1.18 4.13,2.648 5.639,4.405c1.509,1.756 2.264,3.896 2.264,6.421c-0,1.976 -0.453,3.883 -1.358,5.721c-0.906,1.839 -2.209,3.485 -3.911,4.94c-1.701,1.454 -3.786,2.606 -6.256,3.457c-2.47,0.851 -5.269,1.276 -8.397,1.276c-3.019,0 -5.831,-0.412 -8.438,-1.235c-2.607,-0.823 -5.035,-1.879 -7.286,-3.169c-2.25,-1.29 -4.349,-2.744 -6.297,-4.363c-1.949,-1.619 -3.746,-3.225 -5.392,-4.816c-0.604,-0.494 -1.167,-0.906 -1.688,-1.235c-0.521,-0.329 -1.056,-0.494 -1.605,-0.494c-0.769,0 -1.482,0.302 -2.141,0.906l-10.619,10.372c-1.153,1.098 -1.523,2.141 -1.112,3.129c0.412,0.987 1.029,1.948 1.853,2.881Z" style="fill:#fff;fill-rule:nonzero;"/><path d="M624.938,248.391c2.634,2.909 5.598,5.557 8.89,7.944c3.293,2.387 6.806,4.432 10.538,6.133c3.732,1.701 7.601,3.018 11.607,3.951c4.006,0.933 8.068,1.4 12.184,1.4c5.707,-0 11.209,-0.851 16.505,-2.552c5.296,-1.701 9.975,-4.13 14.036,-7.286c4.062,-3.155 7.3,-6.956 9.714,-11.401c2.415,-4.446 3.623,-9.385 3.623,-14.818c-0,-5.543 -1.043,-10.277 -3.129,-14.201c-2.085,-3.924 -4.912,-7.299 -8.479,-10.126c-3.567,-2.826 -7.711,-5.213 -12.431,-7.162c-4.719,-1.948 -9.741,-3.718 -15.065,-5.309c-3.347,-0.933 -6.434,-1.825 -9.261,-2.676c-2.826,-0.851 -5.268,-1.838 -7.326,-2.963c-2.059,-1.126 -3.65,-2.429 -4.775,-3.911c-1.125,-1.482 -1.688,-3.32 -1.688,-5.515c0,-2.744 0.577,-4.953 1.729,-6.627c1.153,-1.674 2.607,-2.991 4.363,-3.952c1.756,-0.96 3.718,-1.605 5.886,-1.934c2.168,-0.33 4.267,-0.494 6.298,-0.494c2.305,-0 4.541,0.37 6.709,1.111c2.168,0.741 4.212,1.66 6.133,2.758c1.921,1.098 3.705,2.277 5.351,3.54c1.646,1.262 3.101,2.415 4.363,3.457c0.659,0.549 1.304,1.016 1.935,1.4c0.631,0.384 1.276,0.576 1.934,0.576c0.714,0 1.427,-0.329 2.141,-0.988l8.726,-8.891c1.921,-2.085 1.948,-4.116 0.082,-6.092c-2.305,-2.359 -4.871,-4.568 -7.697,-6.626c-2.826,-2.059 -5.804,-3.856 -8.932,-5.393c-3.128,-1.536 -6.38,-2.744 -9.755,-3.622c-3.375,-0.878 -6.792,-1.317 -10.249,-1.317c-6.367,0 -12.17,0.796 -17.411,2.387c-5.242,1.592 -9.742,3.828 -13.501,6.71c-3.76,2.881 -6.668,6.325 -8.726,10.331c-2.059,4.007 -3.088,8.452 -3.088,13.336c0,4.501 0.851,8.534 2.552,12.102c1.702,3.567 4.199,6.778 7.492,9.631c3.293,2.854 7.381,5.42 12.266,7.698c4.884,2.277 10.537,4.376 16.958,6.297c2.086,0.549 4.418,1.208 6.998,1.976c2.579,0.768 4.994,1.742 7.244,2.922c2.25,1.18 4.13,2.648 5.639,4.405c1.509,1.756 2.264,3.896 2.264,6.421c-0,1.976 -0.453,3.883 -1.358,5.721c-0.906,1.839 -2.209,3.485 -3.911,4.94c-1.701,1.454 -3.787,2.606 -6.256,3.457c-2.47,0.851 -5.269,1.276 -8.397,1.276c-3.019,0 -5.831,-0.412 -8.438,-1.235c-2.607,-0.823 -5.036,-1.879 -7.286,-3.169c-2.25,-1.29 -4.349,-2.744 -6.297,-4.363c-1.949,-1.619 -3.746,-3.225 -5.392,-4.816c-0.604,-0.494 -1.167,-0.906 -1.688,-1.235c-0.521,-0.329 -1.057,-0.494 -1.605,-0.494c-0.769,0 -1.482,0.302 -2.141,0.906l-10.619,10.372c-1.153,1.098 -1.523,2.141 -1.112,3.129c0.412,0.987 1.029,1.948 1.853,2.881Z" style="fill:#fff;fill-rule:nonzero;"/><path d="M907.979,263.95c0.329,0.878 0.796,1.495 1.4,1.852c0.603,0.357 1.207,0.535 1.811,0.535l6.256,0c0.604,0 1.194,-0.178 1.77,-0.535c0.576,-0.357 1.056,-0.974 1.441,-1.852l46.841,-111.794c0.439,-0.988 0.384,-1.784 -0.165,-2.387c-0.548,-0.604 -1.234,-0.906 -2.058,-0.906l-10.866,0c-0.604,0 -1.153,0.165 -1.647,0.494c-0.494,0.329 -0.933,0.961 -1.317,1.893l-36.716,91.955l-19.345,-47.007l18.193,-44.042c0.439,-0.988 0.398,-1.784 -0.124,-2.387c-0.521,-0.604 -1.193,-0.906 -2.016,-0.906l-10.949,0c-0.604,0 -1.167,0.165 -1.688,0.494c-0.521,0.329 -0.974,0.961 -1.358,1.893l-36.634,91.955l-37.539,-91.955c-0.384,-0.932 -0.809,-1.564 -1.276,-1.893c-0.466,-0.329 -1.001,-0.494 -1.605,-0.494l-10.126,0c-0.823,0 -1.495,0.288 -2.016,0.865c-0.522,0.576 -0.563,1.385 -0.124,2.428l46.265,111.794c0.384,0.878 0.865,1.495 1.441,1.852c0.576,0.357 1.166,0.535 1.77,0.535l6.174,0c0.604,0 1.18,-0.178 1.729,-0.535c0.549,-0.357 1.015,-0.974 1.399,-1.852l20.663,-49.229l20.416,49.229Z" style="fill:#fff;fill-rule:nonzero;"/><path d="M1014.54,263.538c-0,1.866 0.905,2.799 2.716,2.799l77.301,0c0.933,0 1.66,-0.233 2.181,-0.7c0.522,-0.466 0.782,-1.166 0.782,-2.099l0,-10.043c0,-0.933 -0.26,-1.619 -0.782,-2.058c-0.521,-0.439 -1.248,-0.659 -2.181,-0.659l-64.705,0l-0,-38.691l50.134,-0c0.933,-0 1.701,-0.22 2.305,-0.659c0.604,-0.439 0.905,-1.125 0.905,-2.058l0,-9.714c0,-0.933 -0.301,-1.633 -0.905,-2.099c-0.604,-0.467 -1.372,-0.7 -2.305,-0.7l-50.134,0l-0,-32.6l64.787,0c0.933,0 1.66,-0.233 2.182,-0.699c0.521,-0.467 0.782,-1.167 0.782,-2.1l-0,-9.878c-0,-0.933 -0.261,-1.619 -0.782,-2.058c-0.522,-0.439 -1.249,-0.659 -2.182,-0.659l-77.383,0c-1.811,0 -2.716,0.906 -2.716,2.717l-0,111.958Z" style="fill:#fff;fill-rule:nonzero;"/><path d="M1146.71,263.538c0,1.866 0.906,2.799 2.717,2.799l70.303,0c0.933,0 1.688,-0.233 2.264,-0.7c0.576,-0.466 0.865,-1.166 0.865,-2.099l-0,-8.808c-0,-0.933 -0.289,-1.619 -0.865,-2.058c-0.576,-0.439 -1.331,-0.659 -2.264,-0.659l-57.79,-0l0,-100.022c0,-2.03 -0.878,-3.046 -2.634,-3.046l-9.879,0c-0.823,0 -1.482,0.275 -1.976,0.824c-0.494,0.549 -0.741,1.289 -0.741,2.222l0,111.547Z" style="fill:#fff;fill-rule:nonzero;"/><path d="M1268.09,263.538c0,1.866 0.906,2.799 2.717,2.799l70.303,0c0.933,0 1.688,-0.233 2.264,-0.7c0.576,-0.466 0.864,-1.166 0.864,-2.099l0,-8.808c0,-0.933 -0.288,-1.619 -0.864,-2.058c-0.576,-0.439 -1.331,-0.659 -2.264,-0.659l-57.79,-0l-0,-100.022c-0,-2.03 -0.878,-3.046 -2.635,-3.046l-9.878,0c-0.824,0 -1.482,0.275 -1.976,0.824c-0.494,0.549 -0.741,1.289 -0.741,2.222l0,111.547Z" style="fill:#fff;fill-rule:nonzero;"/><path d="M1472.13,264.032c0.659,0.933 1.304,1.55 1.935,1.852c0.631,0.302 1.248,0.453 1.852,0.453l9.879,0c1.921,0 2.881,-1.015 2.881,-3.046l0,-111.547c0,-0.878 -0.288,-1.564 -0.864,-2.058c-0.577,-0.494 -1.249,-0.741 -2.017,-0.741l-9.138,0c-0.933,0 -1.646,0.261 -2.14,0.783c-0.494,0.521 -0.741,1.193 -0.741,2.016l-0,88.744l-67.093,-89.155c-0.604,-0.878 -1.235,-1.496 -1.893,-1.852c-0.659,-0.357 -1.29,-0.536 -1.894,-0.536l-10.784,0c-0.933,0 -1.633,0.289 -2.099,0.865c-0.467,0.576 -0.7,1.221 -0.7,1.934l-0,111.547c-0,2.031 0.933,3.046 2.799,3.046l9.138,0c1.921,0 2.881,-1.015 2.881,-3.046l0,-91.625l67.998,92.366Z" style="fill:#fff;fill-rule:nonzero;"/><path d="M1544.94,263.538c-0,1.866 0.905,2.799 2.716,2.799l77.301,0c0.933,0 1.66,-0.233 2.181,-0.7c0.522,-0.466 0.783,-1.166 0.783,-2.099l-0,-10.043c-0,-0.933 -0.261,-1.619 -0.783,-2.058c-0.521,-0.439 -1.248,-0.659 -2.181,-0.659l-64.705,0l-0,-38.691l50.134,-0c0.933,-0 1.701,-0.22 2.305,-0.659c0.604,-0.439 0.905,-1.125 0.905,-2.058l0,-9.714c0,-0.933 -0.301,-1.633 -0.905,-2.099c-0.604,-0.467 -1.372,-0.7 -2.305,-0.7l-50.134,0l-0,-32.6l64.787,0c0.933,0 1.66,-0.233 2.182,-0.699c0.521,-0.467 0.782,-1.167 0.782,-2.1l-0,-9.878c-0,-0.933 -0.261,-1.619 -0.782,-2.058c-0.522,-0.439 -1.249,-0.659 -2.182,-0.659l-77.383,0c-1.811,0 -2.716,0.906 -2.716,2.717l-0,111.958Z" style="fill:#fff;fill-rule:nonzero;"/><path d="M1674.8,248.144c2.69,3.073 5.694,5.831 9.015,8.273c3.32,2.442 6.778,4.514 10.372,6.216c3.595,1.701 7.272,3.004 11.032,3.91c3.759,0.905 7.45,1.358 11.072,1.358c6.256,0 12.129,-0.768 17.617,-2.305c5.488,-1.537 10.276,-3.814 14.365,-6.833c4.089,-3.018 7.313,-6.75 9.673,-11.195c2.36,-4.446 3.54,-9.55 3.54,-15.312c-0,-5.543 -1.276,-10.181 -3.828,-13.913c-2.552,-3.732 -5.845,-6.887 -9.879,-9.467c-4.034,-2.579 -8.561,-4.72 -13.583,-6.421c-5.022,-1.701 -10.002,-3.293 -14.941,-4.775c-3.348,-0.988 -6.6,-2.003 -9.756,-3.046c-3.155,-1.042 -5.954,-2.277 -8.397,-3.704c-2.442,-1.427 -4.404,-3.142 -5.886,-5.145c-1.481,-2.003 -2.222,-4.459 -2.222,-7.368c-0,-3.238 0.782,-5.914 2.346,-8.027c1.564,-2.113 3.54,-3.786 5.927,-5.021c2.387,-1.235 5.008,-2.113 7.862,-2.635c2.854,-0.521 5.543,-0.782 8.067,-0.782c2.799,0 5.475,0.371 8.027,1.112c2.552,0.741 4.967,1.687 7.244,2.84c2.278,1.152 4.404,2.442 6.38,3.869c1.976,1.427 3.76,2.826 5.351,4.198c0.604,0.549 1.18,1.002 1.729,1.359c0.549,0.356 1.125,0.535 1.729,0.535c0.549,-0 1.152,-0.247 1.811,-0.741l6.009,-5.927c0.769,-0.823 1.125,-1.647 1.071,-2.47c-0.055,-0.823 -0.44,-1.619 -1.153,-2.387c-2.36,-2.58 -4.994,-4.898 -7.903,-6.957c-2.909,-2.058 -5.996,-3.814 -9.261,-5.268c-3.266,-1.454 -6.668,-2.58 -10.208,-3.375c-3.54,-0.796 -7.121,-1.194 -10.743,-1.194c-6.366,-0 -12.033,0.796 -17,2.387c-4.967,1.592 -9.165,3.787 -12.595,6.586c-3.43,2.799 -6.037,6.078 -7.821,9.838c-1.783,3.759 -2.675,7.834 -2.675,12.224c-0,4.336 0.727,8.137 2.181,11.402c1.455,3.266 3.677,6.161 6.668,8.685c2.992,2.525 6.806,4.789 11.443,6.792c4.638,2.003 10.167,3.91 16.588,5.721c1.866,0.494 3.938,1.057 6.216,1.688c2.277,0.631 4.596,1.344 6.956,2.14c2.36,0.796 4.665,1.715 6.915,2.758c2.25,1.043 4.253,2.264 6.009,3.663c1.757,1.4 3.17,2.991 4.24,4.775c1.07,1.784 1.605,3.828 1.605,6.133c0,3.732 -0.905,6.915 -2.716,9.549c-1.811,2.635 -4.103,4.789 -6.874,6.463c-2.772,1.674 -5.79,2.895 -9.056,3.663c-3.265,0.768 -6.352,1.153 -9.261,1.153c-3.293,-0 -6.476,-0.426 -9.549,-1.276c-3.074,-0.851 -5.982,-1.976 -8.727,-3.376c-2.744,-1.399 -5.296,-3.018 -7.656,-4.857c-2.359,-1.838 -4.445,-3.773 -6.256,-5.803c-1.098,-1.098 -2.086,-1.647 -2.964,-1.647c-0.658,0 -1.234,0.22 -1.728,0.659l-6.998,6.174c-0.933,0.933 -1.235,1.825 -0.905,2.675c0.329,0.851 0.823,1.661 1.481,2.429Z" style="fill:#fff;fill-rule:nonzero;"/><path d="M1810.59,248.144c2.69,3.073 5.694,5.831 9.015,8.273c3.32,2.442 6.778,4.514 10.372,6.216c3.595,1.701 7.272,3.004 11.032,3.91c3.759,0.905 7.45,1.358 11.072,1.358c6.256,0 12.129,-0.768 17.617,-2.305c5.488,-1.537 10.276,-3.814 14.365,-6.833c4.089,-3.018 7.313,-6.75 9.673,-11.195c2.36,-4.446 3.54,-9.55 3.54,-15.312c-0,-5.543 -1.276,-10.181 -3.828,-13.913c-2.552,-3.732 -5.845,-6.887 -9.879,-9.467c-4.034,-2.579 -8.561,-4.72 -13.583,-6.421c-5.022,-1.701 -10.002,-3.293 -14.941,-4.775c-3.348,-0.988 -6.6,-2.003 -9.756,-3.046c-3.155,-1.042 -5.954,-2.277 -8.397,-3.704c-2.442,-1.427 -4.404,-3.142 -5.886,-5.145c-1.481,-2.003 -2.222,-4.459 -2.222,-7.368c-0,-3.238 0.782,-5.914 2.346,-8.027c1.564,-2.113 3.54,-3.786 5.927,-5.021c2.387,-1.235 5.008,-2.113 7.862,-2.635c2.854,-0.521 5.543,-0.782 8.067,-0.782c2.799,0 5.475,0.371 8.027,1.112c2.552,0.741 4.967,1.687 7.244,2.84c2.278,1.152 4.404,2.442 6.38,3.869c1.976,1.427 3.76,2.826 5.351,4.198c0.604,0.549 1.18,1.002 1.729,1.359c0.549,0.356 1.125,0.535 1.729,0.535c0.549,-0 1.152,-0.247 1.811,-0.741l6.009,-5.927c0.769,-0.823 1.125,-1.647 1.071,-2.47c-0.055,-0.823 -0.44,-1.619 -1.153,-2.387c-2.36,-2.58 -4.994,-4.898 -7.903,-6.957c-2.909,-2.058 -5.996,-3.814 -9.261,-5.268c-3.266,-1.454 -6.668,-2.58 -10.208,-3.375c-3.54,-0.796 -7.121,-1.194 -10.743,-1.194c-6.366,-0 -12.033,0.796 -17,2.387c-4.967,1.592 -9.165,3.787 -12.595,6.586c-3.43,2.799 -6.037,6.078 -7.821,9.838c-1.783,3.759 -2.675,7.834 -2.675,12.224c-0,4.336 0.727,8.137 2.181,11.402c1.455,3.266 3.677,6.161 6.668,8.685c2.992,2.525 6.806,4.789 11.443,6.792c4.638,2.003 10.167,3.91 16.588,5.721c1.866,0.494 3.938,1.057 6.216,1.688c2.277,0.631 4.596,1.344 6.956,2.14c2.36,0.796 4.665,1.715 6.915,2.758c2.25,1.043 4.253,2.264 6.009,3.663c1.757,1.4 3.17,2.991 4.24,4.775c1.07,1.784 1.605,3.828 1.605,6.133c0,3.732 -0.905,6.915 -2.716,9.549c-1.811,2.635 -4.103,4.789 -6.874,6.463c-2.772,1.674 -5.79,2.895 -9.056,3.663c-3.265,0.768 -6.352,1.153 -9.261,1.153c-3.293,-0 -6.476,-0.426 -9.549,-1.276c-3.074,-0.851 -5.982,-1.976 -8.727,-3.376c-2.744,-1.399 -5.296,-3.018 -7.656,-4.857c-2.359,-1.838 -4.445,-3.773 -6.256,-5.803c-1.098,-1.098 -2.086,-1.647 -2.964,-1.647c-0.658,0 -1.234,0.22 -1.728,0.659l-6.998,6.174c-0.933,0.933 -1.235,1.825 -0.905,2.675c0.329,0.851 0.823,1.661 1.481,2.429Z" style="fill:#fff;fill-rule:nonzero;"/></g></g></svg>